#define load_width 11
#define load_height 11
static unsigned char load_bits[] = {
   0x20, 0x00, 0x22, 0x02, 0x04, 0x01, 0x70, 0x00, 0x88, 0x00, 0x8b, 0x06,
   0x88, 0x00, 0x70, 0x00, 0x52, 0x02, 0x50, 0x00, 0x70, 0x00 };
