#define panel_width 16
#define panel_height 11
static unsigned char panel_bits[] = {
   0x38, 0x00, 0xc4, 0x01, 0x44, 0x0e, 0x2a, 0x72, 0x72, 0x91, 0x91, 0x8b,
   0x89, 0x4c, 0x4e, 0x54, 0x70, 0x22, 0x80, 0x23, 0x00, 0x1c };
